<svg xmlns="http://www.w3.org/2000/svg" viewBox="0 0 1844.99 480"><defs><style>.cls-1{fill:#fff;}.cls-2{fill:#ffd51e;}.cls-3{fill:#e03a3e;}.cls-4{fill:#231f20;}</style></defs><title>logowclub</title><g id="Layer_2" data-name="Layer 2"><g id="cover"><path class="cls-1" d="M458.9,355.08a50.14,50.14,0,0,1-1.64,9.36c-.38,1.09-.84,2.18-1.19,3-6.58,2.66-31.48,12.81-39.23,17.62a178.91,178.91,0,0,0-15.62,10.81l-.32-.25s0,0,0,0c-6.57-5-13.15-10.06-14.18-10.95-2.64-2.75-9.28-8.37-9.56-8.61l-3.31-2.8-2.46,4c-.08.13-8.1,13.1-13.3,18.23-1.45,1.41-3.41,3.18-6,5.38l-.13.1-.11.11c-3.81,3.77-7.21,7.05-7.25,7.08l-2.66,2.58,2.3,2.91c7.26,9.18,18.86,26.28,19.05,33.1a49.81,49.81,0,0,1-.15,5.87,38.1,38.1,0,0,1-3.53,13.77c-.16.33-.88,1.33-1.35,2s-1,1.47-1.49,2.15l-3.45,3.6-3.36,1.22-5-.52c-.76-.24-1.64-.46-2.51-.69s-2-.52-2.33-.65a23.53,23.53,0,0,1-2.12-1l-.86-.49a45.91,45.91,0,0,1-12.49-11.1c-4.25-5.34-6.41-25.9-6.77-37.59l-.12-3.71-.36,0-3.35-.23s-4.75-.31-10.1-.74h-.31c-3.4,0-6-.09-8.06-.24-7.29-.56-21.78-5.32-21.93-5.36l-4.51-1.48-.8,4.68c-.06.33-1.35,7.92-1.7,12,0,.28,0,.55-.05.8-.23,1.35-2,9.43-3.8,17.5a179.18,179.18,0,0,0-18.9,1.82c-9,1.32-34.61,9.6-41.35,11.8-.51-.25-1.12-.56-1.73-.91h0c-.37-.19-.75-.4-1.12-.61-2.13-1.24-11.92-9.25-13.45-14.78a8,8,0,0,1-.07-2.5c.57-6.61,5.22-18.32,8.24-25.16,9,3.61,28.85,10.75,37.72,7.39a28.31,28.31,0,0,0,8.42-5.5h0a.17.17,0,0,0,.06-.06c6.19-5.51,11.46-13,13.53-16.21,0,0,0,0,0-.05l.18-.36,1-2-.71-1.67A210.92,210.92,0,0,1,244.9,368c-4.16-16.86-4.12-35.18-4.11-35.36v-3.05l-.37-.1-2.54-.79c-1-.31-10.16-3.09-14.39-3.73-2.53-.39-9.3-1.39-14-2.09a.75.75,0,0,0,0-.16c.46-1.41,1-3,1.5-4.7a.43.43,0,0,1,0-.14c.87-2.86,1.72-5.88,2.23-8.31a48.53,48.53,0,0,0,.85-6c.33-3.82.39-7.81.39-10.64,9.1-1,26.32-3.06,30.35-5,7.42-3.62,10.5-7,14.08-11,.71-.79,1.46-1.62,2.28-2.49a27.53,27.53,0,0,0,5-7.61l0,0a51.82,51.82,0,0,0,3.83-13.09l.29-.1.83-.32.07,0a57,57,0,0,0,7.86,5.67c.3.19.61.36.92.53a30.33,30.33,0,0,0,11.35,3.95c1.19.14,2.3.29,3.34.43,5.28.71,9.84,1.33,17.84-.69,4.34-1.09,18.7-10.51,26.33-15.64l.13-.08c2.82,3.38,7.63,8.81,11.68,11.95,3.17,2.46,8,5.56,11.49,7.71l-9.34,10.62c-2.82,3.21-8,11.23-8.6,12.13l-1.65,2.56,2,2.32c.12.14,12,14.14,19.65,29.68a210.62,210.62,0,0,1,11.66,29l.62,2,0,.11,2.08.63c3.46,1,21.21,6,31.2,2.53,8.94-3.15,19.53-21.43,24.08-30,1.78.86,3.55,1.76,5.32,2.68l.83.45c.68.36,1.34.72,2,1.09l2.54,1.44c6.79,3.95,12.29,7.87,13.37,10.22C459,346.61,459.3,350.38,458.9,355.08Z"/><path class="cls-2" d="M260.51,249.37l-.53,5c-.23.76-.46,1.65-.68,2.51s-.52,2-.66,2.34c-.34.82-3.56,8.26-12.62,15.47a12.28,12.28,0,0,1-2.69,1.49h0c-7.69,3.25-24.69,4.95-34.91,5.27l-3.7.11-.1,1.44-.17,2.27c0,.05-.31,4.74-.73,10.1v.31c0,3.41-.09,6-.25,8.06-.56,7.29-5.31,21.79-5.35,21.92L196.67,330l4.27.72c.32.06,7.91,1.35,12,1.69l.79.07c1.35.22,9.45,2,17.51,3.78a.65.65,0,0,1,0,.14l.36.08a181.87,181.87,0,0,0,1.82,18.91c1.32,9,9.6,34.61,11.81,41.34-.4.82-1,1.87-1.54,2.87-1.24,2.13-9.24,11.92-14.78,13.44a2.3,2.3,0,0,1-.48.08h0a10.91,10.91,0,0,1-2,0c-6.6-.58-18.32-5.23-25.15-8.24a.43.43,0,0,1,0-.05c3.62-9,10.72-28.82,7.37-37.68-3.65-9.65-17.8-19.44-22-22.21l-1.82-1.19h0l-2,.83a210,210,0,0,1-29.67,9.77c-16.86,4.15-35.16,4.11-35.35,4.11h-3l-.89,2.9c-.32,1-3.1,10.18-3.74,14.4-.38,2.54-1.39,9.3-2.09,14-3.88-1.28-9.37-3-13.3-3.83a49,49,0,0,0-6-.84c-3.82-.32-7.82-.39-10.64-.39a2.11,2.11,0,0,0,0-.21c-1-9.15-3-26.13-5-30.14-3.61-7.41-7-10.5-11-14.08-.79-.71-1.61-1.46-2.49-2.28a26,26,0,0,0-5.18-3.76,47.92,47.92,0,0,0-15.54-5.08l-.06-.16-.38-1c6-7.12,9.44-13.89,10.14-20.12.14-1.2.29-2.3.43-3.35.71-5.28,1.33-9.84-.68-17.84-1.1-4.37-10.62-18.85-15.72-26.45,3.37-2.83,8.81-7.63,12-11.69,2.44-3.15,5.51-7.94,7.66-11.41l0-.08,10.62,9.34c3.21,2.83,11.23,8,12.14,8.6l2.19,1.42.37.23,2.31-2c.15-.11,14.15-12,29.68-19.64a209.26,209.26,0,0,1,29-11.66l2.08-.65.62-2.09c1-3.46,6-21.2,2.54-31.19-1.84-5.2-8.76-10.95-15.93-15.74l-.69-.45,0,0-1.49-1-.76-.48-1.6-1-.89-.54-1.7-1c-.91-.54-1.81-1.05-2.66-1.54-.17-.1-.34-.2-.52-.29l-.11-.06-.87-.49-.11-.05c-1-.53-1.82-1-2.63-1.43h0c4.8-9.92,11-20.27,14.8-23.34h0a5.19,5.19,0,0,1,1.07-.71c2.13-1,5.9-1.29,10.61-.88a48.1,48.1,0,0,1,9.35,1.64c.95.32,1.9.71,2.69,1l.34.14c2.66,6.59,12.83,31.48,17.64,39.23A177.63,177.63,0,0,0,181,198.06c-5,6.57-10.06,13.15-10.94,14.18-2.75,2.64-8.38,9.28-8.61,9.57l-3.07,3.63,4,2.5h0c.52.31,13.17,8.17,18.21,13.29,1.42,1.44,3.18,3.41,5.39,6l.1.12.1.11c3.78,3.82,7.05,7.21,7.09,7.25l1.23,1.28,1.07,1.09.28.29,2.91-2.3c7.53-6,20.37-14.82,28.51-17.92a15,15,0,0,1,4.6-1.13,49.46,49.46,0,0,1,5.85.16,38.55,38.55,0,0,1,13.65,3.45l0,0,.1.05c.32.17,1.34.88,2,1.36s1.48,1,2.15,1.47l3.61,3.46Z"/><path class="cls-3" d="M349.08,49.41c-.57,6.61-5.23,18.32-8.23,25.16-9-3.61-28.86-10.75-37.73-7.39-9.65,3.66-19.45,17.8-22.22,22L279.71,91l.84,2a209.87,209.87,0,0,1,9.77,29.68c4.15,16.86,4.12,35.17,4.12,35.35v3l2.9.89c1,.32,10.17,3.1,14.4,3.74l13.57,2,.42.07c-1.27,3.88-3,9.38-3.82,13.3a49.17,49.17,0,0,0-.84,6c-.32,3.82-.4,7.81-.39,10.64-9.1,1-26.31,3-30.35,5-7.42,3.62-10.51,7-14.08,11L274,216.32c-4.31,4.55-7.28,11.5-8.84,20.67v0l-1.19.45a3.5,3.5,0,0,0-.3-.24l-.08,0a58.39,58.39,0,0,0-7.72-5.59c-.34-.21-.69-.41-1-.6a30.19,30.19,0,0,0-11-3.74c-1.19-.14-2.29-.29-3.34-.44-5.29-.7-9.85-1.32-17.85.69-4.36,1.1-18.85,10.62-26.44,15.73-.08-.09-.17-.19-.25-.3-2.86-3.39-7.51-8.61-11.44-11.66-3.18-2.46-8-5.55-11.5-7.7L182.32,213c2.83-3.21,8-11.23,8.6-12.13l1.64-2.57-2-2.31c-.12-.14-12-14.15-19.64-29.68a211.69,211.69,0,0,1-11.67-29l-.65-2.07-.34-.1-1.74-.53c-3.46-1-21.2-6-31.2-2.54-3.32,1.18-6.85,4.41-10.23,8.46-5.73,6.9-11,16.15-13.86,21.53-3.75-1.83-7.58-3.85-11.05-5.88-1.07-.63-2.11-1.25-3.11-1.87-5.13-3.2-9-6.2-9.89-8.14-1-2.13-1.3-5.9-.89-10.61A50.32,50.32,0,0,1,78,126.25c.39-1.09.83-2.18,1.18-3,6.59-2.65,31.49-12.8,39.24-17.62A178.53,178.53,0,0,0,134,94.83s0,0,0,0c6.58,5,13.15,10.06,14.19,10.94,2.63,2.76,9.28,8.37,9.55,8.61l3.31,2.8.33.27,2.5-4c.09-.13,8.1-13.1,13.3-18.22,1.45-1.42,3.42-3.18,6-5.38l.12-.1.11-.11c3.82-3.78,7.2-7,7.24-7.08l2.67-2.58L191,77C183.76,67.8,172.17,50.7,172,43.88a54.4,54.4,0,0,1,.16-5.86,38.35,38.35,0,0,1,3.52-13.77c.18-.33.89-1.34,1.36-2s1.06-1.48,1.48-2.15L182,16.5l3.36-1.23,5,.53c.75.24,1.64.46,2.51.69s2,.51,2.33.64c.2.09.82.35,1.74.83,0,0,0,0,0,0,.24.12.49.26.75.41a1.1,1.1,0,0,1,.14.09,45.58,45.58,0,0,1,12.83,11.29c4.25,5.34,6.41,25.89,6.77,37.59l.11,3.52v.19l3.7.26s4.75.31,10.1.74h.32c3.41,0,6,.09,8.06.24,7.28.56,21.78,5.31,21.92,5.35l4.52,1.49.8-4.69c.06-.32,1.35-7.91,1.69-11.95,0-.28.05-.55.06-.8.23-1.35,2-9.43,3.79-17.5a181.75,181.75,0,0,0,18.92-1.82c9-1.32,34.6-9.6,41.34-11.81.71.36,1.61.83,2.5,1.32a.75.75,0,0,0,.15.09.15.15,0,0,0,.06,0l.15.08c2.14,1.24,11.93,9.24,13.45,14.78A7.58,7.58,0,0,1,349.08,49.41Z"/><path class="cls-4" d="M449.31,334.47c-2.92-7.44-11.21-12.32-17.87-15.91-1.36-.74-20.43-9.64-20.47-9.56l-4.82,9.05-.36.68a133.62,133.62,0,0,1-14.53,21.93,13.52,13.52,0,0,1-3.3,3.15c-2.06,1.25-4.59,1.41-7,1.37a55.74,55.74,0,0,1-13.42-1.85c-5.64-1.48-8.66-15.16-10.8-20.1-2.95-6.82-5.79-14-9.72-20.29a179.4,179.4,0,0,0-10.8-15.62c7-9.26,15.49-17.69,22.25-27.08a11.51,11.51,0,0,0-3.67-2.8c-13-8-23.61-18.42-33.63-29.79-8.43,7.3-17.1,14.75-27.52,18.74s-23.14,3.87-31.81-3.16a12.89,12.89,0,0,1-4.78-6.9,13.35,13.35,0,0,1,.27-5.86c5.49-23.71,31.28-26.09,51.45-26.52,4.12-.13,3.31-.29,3.9-4s.25-7.66.58-11.38a149.45,149.45,0,0,1,5.67-28.29A1.54,1.54,0,0,1,319,160c0-.14.07-.23.07-.24.51-1.56,1.15-3,1-4.54-10.66-2.74-22.08-3.49-32.89-5.9a1.71,1.71,0,0,1-1.66-2c-.36-5.24.09-12.34-1.73-17.33-1.38-9.4-4.66-18.69-7.46-27.73-1.12-3.59-3.86-8.6-4-12.35-.16-5.63,7.07-11.46,11.13-14.92A15.73,15.73,0,0,1,288,72c11.81-4.46,29.25,6.49,40.06,10.75,2.83-7.65,6.89-14.79,9.75-22.42,3.12-8.27,5.33-18.56.86-26.74-3.38-6.17-9.39-10.34-14.89-14.73a16.1,16.1,0,0,0-5.14-3.19c-3.67-1.1-9.8,2.83-13.39,4.09-6.27,2.2-12.64,4.13-19.1,5.72-16.86,4.16-35.16,4.12-35.35,4.12h-3.05l-.88,2.9c-.33,1-3.11,10.17-3.74,14.4-.39,2.54-1.4,9.3-2.1,14-3.88-1.27-9.37-3-13.29-3.82-5.38-1.15-11-1-16.5-1.29-2.1-10.3-1.47-21.29-5.75-30.88A44.06,44.06,0,0,0,185.09,4.13a38.78,38.78,0,0,0-3.81-1.53c-.48-.17-.95-.33-1.44-.48s-1-.3-1.49-.44-.76-.21-1.15-.31A80.46,80.46,0,0,0,167.06,0c-.18,0-.54.2-.71.26L164.4,1c-1.42.53-2.85,1-4.27,1.54a4.43,4.43,0,0,0-1,.45,4.22,4.22,0,0,0-.6.52,48.27,48.27,0,0,0-11.33,16.59,26,26,0,0,0-1.64,6.49c-.14,1.19-.29,2.29-.43,3.34-.72,5.28-1.33,9.84.68,17.85,1.1,4.36,10.61,18.85,15.72,26.44-3.37,2.84-8.81,7.64-11.95,11.69-2.46,3.17-5.55,8-7.71,11.5L131.27,88c-3.21-2.83-11.23-8-12.14-8.6l-2.56-1.64-2.32,2c-.13.12-14.14,12-29.68,19.64a211.23,211.23,0,0,1-29,11.67l-2.08.65-.62,2.08c-1,3.46-6,21.2-2.54,31.2a11.42,11.42,0,0,0,.59,1.36c.14.29.3.57.47.85,6.09,9.91,19.83,18.19,30.53,22,10.35,3.71,19.8,7.28,29,13.62a15.27,15.27,0,0,1,5,4.83,14.21,14.21,0,0,1,1.32,6.89,52.62,52.62,0,0,1-1.83,13.68,5.54,5.54,0,0,1-1.11,2.42A6,6,0,0,1,112,212c-18.43,7.52-36.85,15.15-52.65,27.51-6.58-5-13.15-10-14.19-10.94-2.63-2.76-9.28-8.37-9.55-8.61L32,216.89l-2.5,4c-.08.14-8.11,13.11-13.31,18.23-1.45,1.42-3.4,3.18-6,5.39l-.12.1-.11.1c-3.83,3.78-7.22,7.05-7.25,7.09l-2,2-.63.61,2.31,2.91c5.41,6.83,11.18,14.26,15.07,22.1,4.77,9.65,5.38,20.92.3,30.63-.18.33-.89,1.34-1.36,2s-1.05,1.47-1.48,2.14l-3.46,3.61-3.6,2.46,4.72,13,2.53.39c8.2,1.24,14.07,2.08,20.79,8.12a30.1,30.1,0,0,1,6.55,7.94c5.45,10.19,5,24.38,5.76,35.64.08,1.2.08,2.42.06,3.62,7.26,1.59,15.45.57,22.93,1.64a127.3,127.3,0,0,1,17.57,3.8c5.29,1.55,7.88,4.33,9-1.94,0-.33,1.34-7.92,1.69-12,0-.29,0-.55.06-.8.22-1.34,2-9.44,3.79-17.5a180.74,180.74,0,0,0,18.9-1.81c9-1.32,34.6-9.6,41.35-11.81,1.78-.59,7.65,5.08,8.76,6.12,6.09,5.71,8.57,10.42,6.52,18.45a125.25,125.25,0,0,1-7.13,19.4l-6.17,11.32-.74,1.86c-.1.3-.23.6-.35.93-1,2.7-2.21,6-3.3,9.42-1.78,5.64-3.61,11.73-3.8,17.67-.42,12.4,17.17,34.62,30.14,29.16A163.93,163.93,0,0,1,252,450.27l.89-2.91c.32-1,3.1-10.16,3.73-14.39.68-4.45.79-9.61,2.3-13.78,9.67,2.23,18.42,5.05,28.57,4.8a1.42,1.42,0,0,1,1,.25,1.39,1.39,0,0,1,.3.87c1.19,11.25,1.17,23.81,7.39,33.65a45.81,45.81,0,0,0,19.24,16.95,47.81,47.81,0,0,0,8.23,3,30.32,30.32,0,0,0,4.13.88,17.31,17.31,0,0,0,4.86.35,8.29,8.29,0,0,0,1.37-.41l5.09-1.85a5.83,5.83,0,0,0,1.25-.56,6,6,0,0,0,1.05-.9c6.08-6.11,11.77-14.14,12.78-22.92,2-17.17-3.18-28.29-12.35-42.18q-.53-.81-1.05-1.59c-3.6-5.49.25-5.95,4.41-10.13,4.7-4.73,10.11-10.72,12.81-16.84a149.65,149.65,0,0,0,25.17,19.52,157.35,157.35,0,0,1,32-21.62,211.23,211.23,0,0,1,29-11.67c8.44-2.62,7.27-25.27,5.8-31.94-.05-.24-.11-.48-.18-.71s-.1-.38-.15-.56a6.51,6.51,0,0,0-.23-.71C449.4,334.71,449.36,334.59,449.31,334.47ZM83.25,156.79c-3.76-1.83-7.59-3.85-11.06-5.88-1.07-.63-2.11-1.26-3.11-1.87-5.13-3.2-9-6.2-9.89-8.14-1-2.13-1.29-5.9-.89-10.61a50.15,50.15,0,0,1,1.64-9.35c.39-1.1.84-2.19,1.19-3,6.58-2.65,31.48-12.81,39.23-17.62a180.82,180.82,0,0,0,15.57-10.77l0,0c6.57,5,13.14,10,14.18,10.94,2.63,2.76,9.28,8.38,9.56,8.61l3.3,2.8.33.28,2.51-4.06c.08-.13,8.1-13.1,13.3-18.22,1.45-1.42,3.41-3.18,6-5.39l.12-.09.11-.11c3.82-3.78,7.21-7,7.24-7.08l2.67-2.59L173,71.66c-7.27-9.18-18.86-26.28-19-33.1a51.88,51.88,0,0,1,.15-5.86,38,38,0,0,1,3.53-13.77c.17-.33.88-1.34,1.35-2s1.06-1.48,1.48-2.15l3.46-3.6L167.29,10l5,.52c.76.24,1.65.47,2.51.7s2,.51,2.33.65a18.77,18.77,0,0,1,1.74.82s0,0,0,0l.74.42.15.09a45.55,45.55,0,0,1,12.82,11.29c4.25,5.34,6.41,25.89,6.77,37.59l.12,3.52v.19l3.71.26s4.75.31,10.1.73l.15,0h.16c3.41,0,6,.1,8.06.25,7.29.56,21.78,5.31,21.93,5.35l4.52,1.49.79-4.69c.06-.32,1.35-7.91,1.7-12,0-.28,0-.54.06-.79.22-1.35,2-9.44,3.79-17.51a175.64,175.64,0,0,0,18.91-1.81c9-1.32,34.6-9.6,41.34-11.81.71.36,1.61.84,2.5,1.32,0,0,.1.06.15.1l.06,0,.15.08c2.14,1.24,11.93,9.24,13.45,14.78a7.28,7.28,0,0,1,.07,2.5c-.57,6.6-5.23,18.32-8.23,25.16-9-3.61-28.86-10.75-37.73-7.39-9.65,3.66-19.45,17.8-22.21,22l-1.2,1.82.85,2a209.06,209.06,0,0,1,9.76,29.67c4.16,16.86,4.12,35.17,4.12,35.35v3.05l2.91.89c1,.32,10.16,3.1,14.39,3.73l13.57,2c.15,0,.29,0,.43.06-1.28,3.88-3,9.37-3.83,13.3a49.17,49.17,0,0,0-.84,6c-.32,3.81-.4,7.81-.39,10.63-9.1,1-26.31,3.06-30.35,5-7.42,3.62-10.5,7-14.08,11-.71.79-1.46,1.61-2.28,2.49-4.31,4.55-7.28,11.5-8.84,20.67v.05l-1.19.45c-.1-.08-.19-.17-.29-.24l-.08,0a58.45,58.45,0,0,0-7.73-5.59c-.34-.21-.68-.41-1-.6a30.06,30.06,0,0,0-11-3.74c-1.19-.14-2.29-.29-3.34-.43-5.28-.71-9.84-1.33-17.84.68-4.36,1.1-18.86,10.62-26.45,15.73l-.25-.3c-2.86-3.39-7.5-8.61-11.44-11.66-3.17-2.46-8-5.55-11.49-7.71l9.34-10.61c2.83-3.21,8-11.23,8.6-12.13l1.64-2.56-2-2.32c-.12-.14-12-14.15-19.64-29.69a209.32,209.32,0,0,1-11.66-29l-.65-2.07-.35-.11-1.74-.52c-3.46-1.05-21.2-6-31.19-2.54-3.32,1.18-6.86,4.41-10.23,8.46C91.38,142.16,86.11,151.41,83.25,156.79Zm100,242.75c3.62-9,10.73-28.82,7.38-37.68-3.66-9.65-17.8-19.45-22.05-22.21l-1.82-1.2h0l-2,.84A209.36,209.36,0,0,1,135,349.06c-16.86,4.16-35.16,4.12-35.35,4.12h-3l-.89,2.91c-.32,1-3.11,10.16-3.74,14.39-.39,2.54-1.4,9.3-2.09,14-3.89-1.28-9.38-3-13.3-3.83a49.17,49.17,0,0,0-6-.84c-3.81-.33-7.81-.39-10.64-.39,0-.07,0-.13,0-.21-1-9.15-3.05-26.13-5-30.14-3.61-7.42-7-10.5-11-14.08-.79-.71-1.61-1.45-2.48-2.28a26.62,26.62,0,0,0-5.18-3.76,48.06,48.06,0,0,0-15.55-5.09l-.06-.15-.38-1c6-7.12,9.44-13.89,10.14-20.13.15-1.19.29-2.29.44-3.34.71-5.28,1.33-9.84-.69-17.84-1.1-4.36-10.61-18.86-15.72-26.45,3.37-2.83,8.81-7.63,12-11.69,2.44-3.15,5.51-8,7.66-11.41a.56.56,0,0,1,0-.08l10.61,9.34c3.21,2.83,11.24,8,12.15,8.6l2.19,1.42.36.23,2.32-2c.14-.11,14.15-12,29.68-19.64a209.32,209.32,0,0,1,29-11.66l2.08-.65.63-2.09c1-3.46,6-21.2,2.53-31.19-1.83-5.2-8.76-10.95-15.92-15.74l-.69-.45a.05.05,0,0,0,0,0c-.5-.32-1-.65-1.48-1l-.76-.48-1.61-1-.89-.54-1.7-1c-.91-.54-1.81-1.05-2.65-1.54l-.52-.29-.12-.06-.87-.49a.33.33,0,0,1-.1-.06c-1-.52-1.83-1-2.63-1.42h0c4.81-9.92,11-20.27,14.8-23.34h0a5.05,5.05,0,0,1,1.07-.71c2.14-1,5.9-1.29,10.61-.89a50.32,50.32,0,0,1,9.36,1.64c1,.34,1.9.71,2.68,1.05l.35.14c2.65,6.58,12.82,31.48,17.63,39.23A177.16,177.16,0,0,0,163,192.74c-5,6.57-10.06,13.14-10.95,14.18-2.75,2.63-8.37,9.28-8.61,9.56l-3.07,3.64,4,2.5h0c.53.31,13.17,8.17,18.21,13.29,1.42,1.45,3.18,3.41,5.39,6l.11.12.1.11c3.78,3.82,7,7.21,7.08,7.24l1.24,1.28,1.06,1.1.28.29,2.91-2.3c7.53-6,20.37-14.82,28.51-17.92a14.72,14.72,0,0,1,4.6-1.13,49.46,49.46,0,0,1,5.85.16,38.55,38.55,0,0,1,13.65,3.45l0,0,.1.05c.32.17,1.33.88,2,1.35s1.47,1.06,2.14,1.48l3.61,3.46,1.22,3.36-.52,5c-.24.76-.47,1.65-.69,2.51s-.52,2-.65,2.33c-.34.82-3.56,8.27-12.63,15.47a12,12,0,0,1-2.68,1.5h0c-7.69,3.26-24.68,5-34.91,5.27l-3.7.12-.1,1.44-.16,2.27s-.31,4.75-.74,10.1v.31c0,3.41-.09,6-.25,8.06-.56,7.29-5.31,21.78-5.35,21.93l-1.44,4.38,4.28.72c.31.06,7.9,1.35,11.95,1.69l.79.06c1.35.23,9.45,2,17.51,3.79,0,0,0,.1,0,.14l.36.08a181.11,181.11,0,0,0,1.81,18.91c1.33,9,9.61,34.61,11.81,41.34-.4.82-1,1.87-1.54,2.86-1.23,2.14-9.24,11.93-14.77,13.45a3.23,3.23,0,0,1-.49.08h0a11,11,0,0,1-2,0c-6.6-.58-18.32-5.23-25.15-8.24A.43.43,0,0,1,183.21,399.54Zm257.67-49.78a50.14,50.14,0,0,1-1.64,9.36c-.38,1.09-.83,2.19-1.19,3-6.58,2.65-31.48,12.81-39.23,17.62a179.94,179.94,0,0,0-15.61,10.81l-.33-.25-.05,0c-6.57-5-13.14-10.05-14.18-10.94-2.63-2.76-9.27-8.37-9.55-8.61l-3.32-2.8-2.45,4c-.08.13-8.1,13.1-13.31,18.23-1.44,1.41-3.41,3.17-6,5.38l-.12.1-.11.11c-3.81,3.77-7.2,7.05-7.24,7.08l-2.67,2.58,2.3,2.91c7.26,9.18,18.86,26.28,19.06,33.1a49.57,49.57,0,0,1-.16,5.86,38.44,38.44,0,0,1-3.52,13.78c-.17.32-.89,1.33-1.36,2s-1.05,1.47-1.48,2.14l-3.46,3.61-3.36,1.22-5-.52c-.76-.24-1.64-.46-2.51-.69s-2-.52-2.33-.65a21.2,21.2,0,0,1-2.11-1c-.27-.14-.56-.31-.87-.49a45.91,45.91,0,0,1-12.49-11.1c-4.24-5.35-6.4-25.9-6.77-37.6l-.12-3.7-.36,0-3.34-.23s-4.75-.31-10.1-.74h-.31c-3.41,0-6.05-.09-8.07-.25-7.29-.55-21.78-5.3-21.92-5.35l-4.52-1.48-.8,4.68c-.05.33-1.35,7.92-1.69,12,0,.28-.05.55-.06.8-.23,1.35-2,9.43-3.79,17.5A181.11,181.11,0,0,0,225.85,443c-9,1.33-34.61,9.61-41.34,11.82-.52-.26-1.12-.58-1.74-.92h0l-1.13-.62c-2.13-1.24-11.92-9.25-13.45-14.78a8,8,0,0,1-.07-2.51c.57-6.6,5.22-18.31,8.24-25.15,9,3.61,28.85,10.75,37.72,7.39a28.51,28.51,0,0,0,8.43-5.49h0l.07-.06c6.18-5.51,11.45-13.06,13.53-16.21,0,0,0,0,0-.05l.19-.36,1-2-.7-1.67a210.28,210.28,0,0,1-9.77-29.68c-4.15-16.86-4.12-35.17-4.11-35.35v-3l-.36-.12-2.54-.78c-1-.31-10.17-3.1-14.4-3.73l-14-2.09a1.42,1.42,0,0,1,.05-.16c.46-1.41,1-3,1.49-4.71,0,0,0-.08,0-.13.87-2.87,1.72-5.88,2.24-8.3a53.16,53.16,0,0,0,.85-6c.32-3.82.39-7.81.38-10.64,9.1-1,26.32-3.06,30.35-5,7.42-3.61,10.5-7,14.08-11,.71-.79,1.46-1.61,2.28-2.49a27.93,27.93,0,0,0,5-7.61v0a51.61,51.61,0,0,0,3.83-13.08l.29-.1.83-.32.07,0a58.44,58.44,0,0,0,7.86,5.67c.3.19.61.36.92.53a30.33,30.33,0,0,0,11.35,4c1.2.14,2.3.29,3.34.43,5.29.71,9.85,1.33,17.85-.69,4.34-1.09,18.69-10.51,26.32-15.64a1.48,1.48,0,0,1,.13-.08c2.82,3.38,7.63,8.81,11.68,11.95,3.18,2.46,8,5.56,11.5,7.71-3.14,3.56-7.66,8.69-9.35,10.62-2.82,3.21-8,11.23-8.6,12.13L324.64,287l2,2.32c.11.14,12,14.15,19.64,29.68a211.23,211.23,0,0,1,11.67,29l.62,2,0,.11,2.09.63c3.46,1,21.2,6,31.19,2.53,8.95-3.15,19.54-21.43,24.09-30,1.77.86,3.55,1.76,5.31,2.68l.83.45,2,1.09,2.53,1.44c6.8,3.94,12.29,7.87,13.38,10.23C441,341.29,441.29,345.05,440.88,349.76Z"/><path class="cls-4" d="M502.51,231.4c-18.26,17.91-35.11,27.39-50.56,27.39-37.58,0-50.92-28.45-50.92-38.28V134.14L380,118.69v-4.92C386.63,111.31,422.8,99,451.6,92V205.76c0,8.43,7,19,25.63,19,11.58,0,21.07-6,25.28-9.13V134.14l-24.23-15.45v-4.92c6.32-2.46,44.6-14.75,74.8-21.77V219.81l22.82,15.1v4.57c-5.62,2.1-54.43,15.45-73.39,19.66Z"/><path class="cls-4" d="M654.19,120.79c17.9-17.91,34.06-27.39,49.16-27.39,28.09,0,42.48,17.56,47.4,29.5,18.26-18.26,35.47-29.5,52-29.5,34.76,0,49.16,27.74,49.16,37.22V233.86L873,250.36v4.57H782v-4.57l19.31-16.5V147.13c0-8.43-7-19-24.22-19a37.69,37.69,0,0,0-23.88,8.43v97.27l19,16.5v4.57H683.33v-4.57l19-16.5V147.13c0-8.43-7-19-24.23-19-11.93,0-20.36,6-23.87,8.78v96.92l19.31,16.5v4.57H581.85v-4.57l21.42-16.5V134.14l-21.42-15.81v-4.56c7-2.46,44.95-14.75,72.34-21.42Z"/><path class="cls-4" d="M968.44,28.44V23.88c7-2.46,51.26-16.86,78.3-23.88V220.17l23.88,15.09v4.22c-5.27,2.46-54.42,15.45-73.39,20V236c-9.13,8.78-27.74,22.83-44.24,22.83-35.47,0-68.12-30.9-68.12-75.5,0-49.51,35.11-87.08,94.45-87.08,6.68,0,13,.35,16.51.71V44.24Zm27.39,193.48V128.16c-3.52-4.91-11.94-10.88-23.18-10.88-18.26,0-34.76,20.72-34.76,52,0,34.76,19,56.18,42.83,56.18A39.53,39.53,0,0,0,995.83,221.92Z"/><path class="cls-4" d="M580.7,475.93V480H500.51v-4.07l18.89-13.07V309.16l-18.89-11v-3.78c2.91-1.16,29.35-10.46,52.88-16.56V298.7c11-11,24.12-19.18,39.22-19.18,29.06,0,52,22.67,52,59.27,0,39.81-25.27,73.8-72,73.8a123.9,123.9,0,0,1-19.18-1.74v52ZM553.39,309.45v79c2.62,3.19,10.17,8.71,22.37,8.71,17.44,0,33.13-19.75,33.13-50,0-30.8-16.28-45-36-45A29.52,29.52,0,0,0,553.39,309.45Z"/><path class="cls-4" d="M755.92,392c-12.2,11.63-26.44,21.5-41,21.5-29.63,0-41.25-22.08-41.25-32V309.16l-18.31-11v-3.78c2.91-1.16,28.77-10.17,52-16.27v93.27c0,7.84,6.68,18.3,24.11,18.3,10.76,0,20.34-6.68,24.41-10.17v-70L735,298.12v-4.07c2.91-.87,30.5-9.88,54.62-16V385l19.47,10.75v3.78c-2.61.87-44.45,11.91-53.17,13.94Z"/><path class="cls-4" d="M930.55,365.23v45.33H818.4v-4.07l67.7-110.4H848.33l-20.92,28.18h-3.2V282.72h104.6v3.48L860.53,395.74h44.74l22.09-30.51Z"/><path class="cls-4" d="M1055.79,365.23v45.33H943.64v-4.07l67.7-110.4H973.57l-20.92,28.18h-3.19V282.72h104.59v3.48L985.77,395.74h44.74l22.09-30.51Z"/><path class="cls-4" d="M1121.47,394l18.59,12.78v3.78h-71.18v-3.78L1087.47,394V223.22l-20-11.62v-3.78c3.2-1.45,30.79-11.33,54-17.14Z"/><path class="cls-4" d="M1184.53,336.18v2c0,31.67,19.46,49.69,47.07,49.69a99.85,99.85,0,0,0,36-6.4l1.74,3.49c-7.56,10.17-26.73,28.77-54.92,28.77-34.57,0-62.18-24.12-62.18-65.09,0-40.67,32.55-69.15,60.73-69.15,25,0,46.2,18,55.2,54.92v1.74Zm1.74-13.07h47.07c-3.49-21.51-15.69-28.19-22.66-28.19C1202.54,294.92,1190.63,304.8,1186.27,323.11Z"/><path class="cls-4" d="M1451.92,284.06V323h-3.19c-16.26-17.71-32.51-26.42-43.83-26.42-13.07,0-30.48,16.26-30.48,42.38,0,30.78,20.61,49.94,48.48,49.94,14.22,0,26.41-3.78,33.09-7l2.61,3.48c-8.42,11.32-26.71,28.74-53.12,28.74-34,0-64.16-24.09-64.16-63.86,0-38,27.87-70.26,73.45-70.26C1429.86,280,1446.41,282.61,1451.92,284.06Z"/><path class="cls-4" d="M1647.3,392.63c-12.2,11.61-26.42,21.48-40.94,21.48-29.61,0-41.22-22.06-41.22-31.93V309.89l-18.29-11v-3.77c2.91-1.16,28.74-10.16,52-16.26V372c0,7.84,6.67,18.29,24.09,18.29,10.74,0,20.32-6.68,24.39-10.16v-70l-20.91-11.32V294.8c2.91-.87,30.49-9.87,54.58-16V385.66l19.45,10.74v3.78c-2.61.87-44.42,11.9-53.12,13.93Z"/><path class="cls-4" d="M1521,394l18.6,12.78v3.78h-71.19v-3.78L1487,394V223.22l-20-11.62v-3.78c3.2-1.45,30.8-11.33,54-17.14Z"/><path class="cls-4" d="M1794.47,279.7c-13.93,0-29.9,8.71-40.35,18.87v-49.2h-34V411.21h.87c17.42,0,35.7,2.32,52,2.32,39.19,0,72-29.61,72-73.44C1845,302.35,1822.05,279.7,1794.47,279.7Zm-20.9,118.45a29.58,29.58,0,0,1-19.45-7.55V310.18a32.46,32.46,0,0,1,21.19-7.54c19.16,0,34.26,15.38,34.26,45.57C1809.57,376.66,1794.47,398.15,1773.57,398.15Z"/><path class="cls-4" d="M1754.12,190.68v58.69h-34V223.19l-20-11.61v-3.77C1703.32,206.36,1731.19,196.49,1754.12,190.68Z"/></g></g></svg>